<svg width="28" height="19" viewBox="0 0 28 19" fill="none" xmlns="http://www.w3.org/2000/svg">
<path d="M1.55556 19C1.11482 19 0.745635 18.848 0.448005 18.544C0.150376 18.24 0.0010424 17.8642 5.36398e-06 17.4166C-0.00103167 16.9691 0.148302 16.5933 0.448005 16.2893C0.747709 15.9853 1.11689 15.8333 1.55556 15.8333H26.4444C26.8852 15.8333 27.2549 15.9853 27.5535 16.2893C27.8522 16.5933 28.001 16.9691 28 17.4166C27.999 17.8642 27.8496 18.2405 27.552 18.5456C27.2544 18.8506 26.8852 19.0021 26.4444 19H1.55556ZM1.55556 11.0833C1.11482 11.0833 0.745635 10.9313 0.448005 10.6273C0.150376 10.3233 0.0010424 9.94754 5.36398e-06 9.49999C-0.00103167 9.05243 0.148302 8.67666 0.448005 8.37266C0.747709 8.06866 1.11689 7.91666 1.55556 7.91666H26.4444C26.8852 7.91666 27.2549 8.06866 27.5535 8.37266C27.8522 8.67666 28.001 9.05243 28 9.49999C27.999 9.94754 27.8496 10.3239 27.552 10.6289C27.2544 10.934 26.8852 11.0854 26.4444 11.0833H1.55556ZM1.55556 3.16666C1.11482 3.16666 0.745635 3.01466 0.448005 2.71066C0.150376 2.40666 0.0010424 2.03089 5.36398e-06 1.58333C-0.00103167 1.13578 0.148302 0.759999 0.448005 0.456C0.747709 0.152 1.11689 0 1.55556 0H26.4444C26.8852 0 27.2549 0.152 27.5535 0.456C27.8522 0.759999 28.001 1.13578 28 1.58333C27.999 2.03089 27.8496 2.40719 27.552 2.71225C27.2544 3.0173 26.8852 3.16877 26.4444 3.16666H1.55556Z" fill="#E5E7EB"/>
</svg>
