<svg width="381" height="478" viewBox="0 0 381 478" fill="none" xmlns="http://www.w3.org/2000/svg">
<g clip-path="url(#clip0_1089_1707)">
<mask id="mask0_1089_1707" style="mask-type:luminance" maskUnits="userSpaceOnUse" x="0" y="1" width="381" height="476">
<path d="M0 1H381V477H0V1Z" fill="white"/>
</mask>
<g mask="url(#mask0_1089_1707)">
<path d="M66.5293 416.186V470.129C66.5293 473.854 69.8076 476.873 73.851 476.873H307.253C311.297 476.873 314.575 473.853 314.575 470.129V416.186C314.575 377.947 335.74 352.49 354.413 330.029C373.028 307.639 390.614 286.489 375.102 260.582L338.263 192.544C312.765 145.468 289.996 137.95 276.296 139.103C256.461 113.654 224.779 98.5878 190.566 98.5878C156.323 98.5878 124.64 113.654 104.832 139.104C91.134 137.95 68.3597 145.459 42.8382 192.547L6.00025 260.582C-9.50956 286.489 8.07508 307.639 26.6912 330.029C45.3647 352.49 66.5293 377.947 66.5293 416.186ZM190.567 112.072C218.774 112.072 244.988 123.964 262.165 144.211C249.713 152.954 244.134 171.136 250.717 184.864L272.878 231.246C257.921 260.603 225.952 279.416 190.567 279.416C155.174 279.416 123.204 260.596 108.25 231.227L130.419 184.867C136.988 171.131 131.404 152.955 118.961 144.214C136.113 123.967 162.33 112.072 190.567 112.072ZM289.08 265.159C289.628 266.302 289.938 267.64 288.504 269.666C284.892 274.769 273.453 279.416 264.504 279.416H244.215C258.772 271.505 271.235 260.403 280.333 246.85L289.08 265.159ZM100.788 246.83C109.887 260.392 122.354 271.502 136.92 279.416H116.602C107.507 279.416 96.2983 274.862 92.6172 269.67C91.1761 267.637 91.4812 266.295 92.0256 265.154L100.788 246.83ZM18.8874 266.992C18.9397 266.906 18.9886 266.816 19.0375 266.728L55.9445 198.566C77.7529 158.327 96.9489 148.931 107.645 153.553C116.403 157.338 121.218 170.641 117.015 179.433L78.6193 259.726C75.8837 265.461 76.5006 271.612 80.3553 277.046C87.6602 287.345 104.481 292.903 116.602 292.903H264.504C276.64 292.903 293.476 287.341 300.773 277.032C304.619 271.597 305.226 265.447 302.482 259.722L287.732 228.85C287.644 228.64 287.547 228.435 287.439 228.233L264.118 179.427C259.906 170.641 264.713 157.343 273.471 153.554C284.169 148.928 303.363 158.321 325.158 198.563L362.069 266.728C362.116 266.818 362.166 266.906 362.219 266.992C372.702 284.386 362.219 298.457 342.787 321.832C323.694 344.797 299.932 373.378 299.932 416.186V463.387H81.1745V416.186C81.1745 373.378 57.4125 344.797 38.3194 321.832C18.8874 298.457 8.40375 284.386 18.8874 266.992ZM6.18228 67.6939C8.15935 64.4439 12.6208 63.2845 16.1485 65.1035L49.9458 82.5193C51.933 83.5436 53.2882 85.3611 53.6168 87.4347C53.9421 89.5113 53.2022 91.6066 51.6128 93.109L44.7562 99.5904L70.2222 112.713C73.7533 114.532 75.0123 118.64 73.0369 121.891C71.6936 124.098 69.2042 125.341 66.6405 125.341C65.4287 125.341 64.2017 125.064 63.0707 124.481L29.2734 107.064C27.2862 106.041 25.9311 104.223 25.6024 102.148C25.2771 100.073 26.017 97.9763 27.6065 96.4739L34.463 89.994L8.99704 76.8697C5.46764 75.0523 4.20689 70.944 6.18228 67.6939ZM83.7566 12.0834C81.2301 9.17484 81.7425 4.93149 84.8994 2.60649C88.058 0.278393 92.6661 0.751773 95.1909 3.65879L119.383 31.5044C120.805 33.1418 121.319 35.2946 120.775 37.3309C120.23 39.3672 118.687 41.0543 116.6 41.8939L107.589 45.5227L125.816 66.5019C128.343 69.4105 127.83 73.6539 124.673 75.9789C123.322 76.9737 121.707 77.4564 120.102 77.458C117.953 77.458 115.826 76.5919 114.38 74.9266L90.1884 47.0809C88.7659 45.4435 88.2518 43.2892 88.7962 41.2545C89.3406 39.2182 90.8845 37.5311 92.9712 36.6914L101.98 33.0627L83.7566 12.0834ZM308.067 121.891C306.092 118.64 307.351 114.532 310.88 112.713L336.346 99.5904L329.49 93.109C327.9 91.6066 327.161 89.5113 327.488 87.4347C327.815 85.3595 329.171 83.5436 331.159 82.5193L364.954 65.1035C368.485 63.2845 372.947 64.4455 374.92 67.6939C376.896 70.944 375.637 75.0523 372.107 76.8697L346.641 89.994L353.498 96.4739C355.087 97.9763 355.827 100.073 355.5 102.148C355.173 104.225 353.816 106.041 351.829 107.064L318.034 124.481C316.901 125.064 315.674 125.341 314.464 125.341C311.898 125.341 309.409 124.098 308.067 121.891ZM252.116 66.5019L270.341 45.5227L261.332 41.8939C259.246 41.0527 257.702 39.3672 257.157 37.3309C256.613 35.2946 257.127 33.1418 258.55 31.5044L282.74 3.65879C285.266 0.751773 289.876 0.279945 293.033 2.60649C296.19 4.93304 296.702 9.17639 294.176 12.0834L275.949 33.0627L284.958 36.6914C287.044 37.5311 288.588 39.2182 289.133 41.2545C289.679 43.2892 289.165 45.4435 287.74 47.0809L263.552 74.9266C262.106 76.5919 259.977 77.458 257.83 77.458C256.225 77.458 254.609 76.9737 253.259 75.9789C250.102 73.6523 249.59 69.409 252.116 66.5019Z" fill="#272727"/>
<path d="M66.5293 416.186V470.129C66.5293 473.854 69.8076 476.873 73.851 476.873H307.253C311.297 476.873 314.575 473.853 314.575 470.129V416.186C314.575 377.947 335.74 352.49 354.413 330.029C373.028 307.639 390.614 286.489 375.102 260.582L338.263 192.544C312.765 145.468 289.996 137.95 276.296 139.103C256.461 113.654 224.779 98.5878 190.566 98.5878C156.323 98.5878 124.64 113.654 104.832 139.104C91.134 137.95 68.3597 145.459 42.8382 192.547L6.00025 260.582C-9.50956 286.489 8.07508 307.639 26.6912 330.029C45.3647 352.49 66.5293 377.947 66.5293 416.186ZM190.567 112.072C218.774 112.072 244.988 123.964 262.165 144.211C249.713 152.954 244.134 171.136 250.717 184.864L272.878 231.246C257.921 260.603 225.952 279.416 190.567 279.416C155.174 279.416 123.204 260.596 108.25 231.227L130.419 184.867C136.988 171.131 131.404 152.955 118.961 144.214C136.113 123.967 162.33 112.072 190.567 112.072ZM289.08 265.159C289.628 266.302 289.938 267.64 288.504 269.666C284.892 274.769 273.453 279.416 264.504 279.416H244.215C258.772 271.505 271.235 260.403 280.333 246.85L289.08 265.159ZM100.788 246.83C109.887 260.392 122.354 271.502 136.92 279.416H116.602C107.507 279.416 96.2983 274.862 92.6172 269.67C91.1761 267.637 91.4812 266.295 92.0256 265.154L100.788 246.83ZM18.8874 266.992C18.9397 266.906 18.9886 266.816 19.0375 266.728L55.9445 198.566C77.7529 158.327 96.9489 148.931 107.645 153.553C116.403 157.338 121.218 170.641 117.015 179.433L78.6193 259.726C75.8837 265.461 76.5006 271.612 80.3553 277.046C87.6602 287.345 104.481 292.903 116.602 292.903H264.504C276.64 292.903 293.476 287.341 300.773 277.032C304.619 271.597 305.226 265.447 302.482 259.722L287.732 228.85C287.644 228.64 287.547 228.435 287.439 228.233L264.118 179.427C259.906 170.641 264.713 157.343 273.471 153.554C284.169 148.928 303.363 158.321 325.158 198.563L362.069 266.728C362.116 266.818 362.166 266.906 362.219 266.992C372.702 284.386 362.219 298.457 342.787 321.832C323.694 344.797 299.932 373.378 299.932 416.186V463.387H81.1745V416.186C81.1745 373.378 57.4125 344.797 38.3194 321.832C18.8874 298.457 8.40375 284.386 18.8874 266.992ZM6.18228 67.6939C8.15935 64.4439 12.6208 63.2845 16.1485 65.1035L49.9458 82.5193C51.933 83.5436 53.2882 85.3611 53.6168 87.4347C53.9421 89.5113 53.2022 91.6066 51.6128 93.109L44.7562 99.5904L70.2222 112.713C73.7533 114.532 75.0123 118.64 73.0369 121.891C71.6936 124.098 69.2042 125.341 66.6405 125.341C65.4287 125.341 64.2017 125.064 63.0707 124.481L29.2734 107.064C27.2862 106.041 25.9311 104.223 25.6024 102.148C25.2771 100.073 26.017 97.9763 27.6065 96.4739L34.463 89.994L8.99704 76.8697C5.46764 75.0523 4.20689 70.944 6.18228 67.6939ZM83.7566 12.0834C81.2301 9.17484 81.7425 4.93149 84.8994 2.60649C88.058 0.278393 92.6661 0.751773 95.1909 3.65879L119.383 31.5044C120.805 33.1418 121.319 35.2946 120.775 37.3309C120.23 39.3672 118.687 41.0543 116.6 41.8939L107.589 45.5227L125.816 66.5019C128.343 69.4105 127.83 73.6539 124.673 75.9789C123.322 76.9737 121.707 77.4564 120.102 77.458C117.953 77.458 115.826 76.5919 114.38 74.9266L90.1884 47.0809C88.7659 45.4435 88.2518 43.2892 88.7962 41.2545C89.3406 39.2182 90.8845 37.5311 92.9712 36.6914L101.98 33.0627L83.7566 12.0834ZM308.067 121.891C306.092 118.64 307.351 114.532 310.88 112.713L336.346 99.5904L329.49 93.109C327.9 91.6066 327.161 89.5113 327.488 87.4347C327.815 85.3595 329.171 83.5436 331.159 82.5193L364.954 65.1035C368.485 63.2845 372.947 64.4455 374.92 67.6939C376.896 70.944 375.637 75.0523 372.107 76.8697L346.641 89.994L353.498 96.4739C355.087 97.9763 355.827 100.073 355.5 102.148C355.173 104.225 353.816 106.041 351.829 107.064L318.034 124.481C316.901 125.064 315.674 125.341 314.464 125.341C311.898 125.341 309.409 124.098 308.067 121.891ZM252.116 66.5019L270.341 45.5227L261.332 41.8939C259.246 41.0527 257.702 39.3672 257.157 37.3309C256.613 35.2946 257.127 33.1418 258.55 31.5044L282.74 3.65879C285.266 0.751773 289.876 0.279945 293.033 2.60649C296.19 4.93304 296.702 9.17639 294.176 12.0834L275.949 33.0627L284.958 36.6914C287.044 37.5311 288.588 39.2182 289.133 41.2545C289.679 43.2892 289.165 45.4435 287.74 47.0809L263.552 74.9266C262.106 76.5919 259.977 77.458 257.83 77.458C256.225 77.458 254.609 76.9737 253.259 75.9789C250.102 73.6523 249.59 69.409 252.116 66.5019Z" fill="#272727"/>
</g>
</g>
<defs>
<clipPath id="clip0_1089_1707">
<rect width="381" height="478" fill="white"/>
</clipPath>
</defs>
</svg>
